<mxfile host="app.diagrams.net" modified="2023-08-12T18:32:32.737Z" agent="Mozilla/5.0 (Windows NT 10.0; Win64; x64) AppleWebKit/537.36 (KHTML, like Gecko) Chrome/114.0.0.0 Safari/537.36 OPR/100.0.0.0" version="21.6.8" etag="Wc7RT9YSN_8VBO3h373C" type="github">
  <diagram name="Сторінка-1" id="fXlOWmEey6bOQSfAbp9N">
    <mxGraphModel>
      <root>
        <mxCell id="0" />
        <mxCell id="1" parent="0" />
      </root>
    </mxGraphModel>
  </diagram>
</mxfile>
